# xmcd
#
# Track frame offsets:
#	150
#	11275
#	22976
#	39259
#	54286
#	65597
#	76418
#	89409
#	97123
#	116024
#	131869
#	145950
#	162523
#	174506
#	182451
#	194358
#	210597
#	225056
#	243481
#	258722
#
# Disc length: 3674
#
# Revision: 1
# Processed by: cddbd v1.5.1PL0 Copyright (c) Steve Scherf et al.
# Submitted via: CDex 1.51
# Normalized: r0:TDELIM( - )
#
DISCID=0a0e5814
DTITLE=Various Artist - The Original Blues
DYEAR=1900
DGENRE=Blues
TTITLE0=John Lee Hooker - Boom Boom
TTITLE1=Lightnin' Hopkins - Lightnin's Stomp
TTITLE2=Leadbelly - John Hardy
TTITLE3=Pinetop Perkins - Yonders Wall
TTITLE4=Jimmy Reed - I'm nervous
TTITLE5=Lighnin' Slim - My Babe
TTITLE6=Billie Holiday - Billie's Blues
TTITLE7=Canned Heat - Pretty Thing
TTITLE8=Mississippi John Hurt - Monday Morning Blues
TTITLE9=Big Joe Turner - Jump for joy
TTITLE10=Memphis Slim - Blue and lonesome
TTITLE11=Muddy Waters - Caladonia
TTITLE12=Jimmy Reed - Goin' Fishin'
TTITLE13=Billie Holiday - Miss Brown to you
TTITLE14=Big Joe Williams - Sugar Mama
TTITLE15=John Lee Hooker - Process
TTITLE16=Lighnon' Hopkins - Santa Fe Blues
TTITLE17=Pinetop Perkins - Kidney Stew
TTITLE18=Howlin' Wolf - Goin' Down Slow
TTITLE19=Mississippi John Hurt - My Creloe Belle
EXTD=
EXTT0=
EXTT1=
EXTT2=
EXTT3=
EXTT4=
EXTT5=
EXTT6=
EXTT7=
EXTT8=
EXTT9=
EXTT10=
EXTT11=
EXTT12=
EXTT13=
EXTT14=
EXTT15=
EXTT16=
EXTT17=
EXTT18=
EXTT19=
PLAYORDER=
